<svg width="22" height="19" viewBox="0 0 22 19" fill="none" xmlns="http://www.w3.org/2000/svg">
<path fill-rule="evenodd" clip-rule="evenodd" d="M0.988347 15.5687C0.786339 14.6562 0.628621 13.7488 0.504414 12.553L0.499409 12.5051C0.482413 12.3424 0.427131 11.8132 0.40743 11.6219C0.366578 11.2252 0.331505 10.8732 0.298014 10.52C0.145293 8.9091 0.0441531 7.45756 0.000709758 6.03203C-0.0245254 5.20399 0.626279 4.51227 1.45432 4.48703C1.89579 4.47358 2.32075 4.65537 2.6159 4.98394L5.23175 7.89595C5.47164 8.163 5.88261 8.18502 6.14967 7.94512C6.21209 7.88905 6.26307 7.82142 6.29978 7.74596L9.65292 0.854439C9.90515 0.336049 10.4248 0 10.9856 0C11.5575 0 12.0966 0.332515 12.3506 0.854439L15.7037 7.74596C15.8608 8.06876 16.2498 8.20312 16.5726 8.04606C16.648 8.00935 16.7157 7.95837 16.7717 7.89595L19.3808 4.99145C19.9344 4.37516 20.8828 4.32436 21.4991 4.87797C21.8284 5.17375 22.0102 5.59985 21.9959 6.04223C21.9279 8.14933 21.7768 9.9488 21.4989 12.5543C21.4417 13.0905 21.3697 13.5982 21.2845 14.0883C21.2291 14.407 21.1708 14.7039 21.1053 15.0106C21.0832 15.1141 21.0365 15.3252 21.0051 15.467C20.9963 15.5069 20.9887 15.5413 20.9832 15.5663C20.8648 17.1062 16.5366 18.0013 10.9857 18.0013C5.43758 18.0013 1.11101 17.1071 0.988347 15.5687ZM1.98568 15.5023C1.98593 15.5031 1.98663 15.5028 1.98806 15.5013C1.98944 15.5027 1.9915 15.5052 1.99449 15.5087C2.00183 15.5175 2.01479 15.5329 2.0371 15.5559C2.11833 15.6395 2.25902 15.7347 2.45491 15.8322C2.88828 16.0479 3.54311 16.252 4.37105 16.4263C6.10452 16.7912 8.46423 17.0013 10.9856 17.0013C13.5069 17.0013 15.8666 16.7912 17.6001 16.4263C18.428 16.252 19.0828 16.0479 19.5162 15.8322C19.7121 15.7347 19.8528 15.6395 19.934 15.5559C19.9563 15.5329 19.9693 15.5175 19.9766 15.5087C19.9796 15.5052 19.9817 15.5027 19.9831 15.5013C19.9839 15.5022 19.9845 15.5027 19.9849 15.5027C19.9852 15.5028 19.9854 15.5026 19.9855 15.5023C19.9855 15.5016 19.9855 15.501 19.9855 15.5003C19.9852 15.4995 19.9845 15.4998 19.9831 15.5013C19.9817 15.4999 19.9796 15.4975 19.9766 15.4939C19.9693 15.4852 19.9563 15.4697 19.934 15.4467C19.8528 15.3632 19.7121 15.2679 19.5162 15.1704C19.0828 14.9547 18.428 14.7507 17.6001 14.5764C15.8666 14.2114 13.5069 14.0013 10.9856 14.0013C8.46423 14.0013 6.10452 14.2114 4.37105 14.5764C3.54311 14.7507 2.88828 14.9547 2.45491 15.1704C2.25902 15.2679 2.11833 15.3632 2.0371 15.4467C2.01479 15.4697 2.00183 15.4852 1.99449 15.4939C1.9915 15.4975 1.98944 15.4999 1.98806 15.5013C1.98663 15.4999 1.98593 15.4995 1.98567 15.5003C1.98568 15.501 1.98568 15.5017 1.98568 15.5023ZM20.2026 14.4368C20.2364 14.2665 20.2683 14.0953 20.2993 13.9171C20.3808 13.448 20.4498 12.962 20.5046 12.4483C20.78 9.86556 20.9295 8.08621 20.9965 6.00998C21.0012 5.86252 20.9406 5.72048 20.8308 5.62189C20.6254 5.43735 20.3093 5.45429 20.1247 5.65972L17.5157 8.56421C17.3733 8.72267 17.2016 8.85207 17.0101 8.94527C16.1907 9.34397 15.2032 9.0029 14.8045 8.18348L11.4513 1.29196C11.3659 1.11636 11.1772 1 10.9856 1C10.8134 1 10.6394 1.11253 10.5521 1.29196L7.19899 8.18348C7.1058 8.37502 6.9764 8.5467 6.81793 8.68905C6.14002 9.29802 5.09679 9.24212 4.48782 8.56421L1.87198 5.6522C1.77359 5.54268 1.63194 5.48208 1.48478 5.48657C1.20877 5.49498 0.991834 5.72555 1.00025 6.00157C1.04295 7.40297 1.14269 8.8343 1.29355 10.4256C1.32676 10.7759 1.36157 11.1253 1.40217 11.5195C1.42173 11.7095 1.4767 12.2356 1.49389 12.4002C1.49694 12.4293 1.4988 12.4471 1.49906 12.4497C1.57739 13.2038 1.66926 13.8374 1.77783 14.4312C3.28297 13.5141 6.78404 13.0013 10.9857 13.0013C15.1958 13.0013 18.7025 13.5162 20.2026 14.4368Z" fill="white"/>
</svg>
