<svg width="32" height="32" viewBox="0 0 32 32" fill="none" xmlns="http://www.w3.org/2000/svg">
<path fill-rule="evenodd" clip-rule="evenodd" d="M10.7822 6.81597C12.2328 6.60509 13.8889 6.5 15.7512 6.5C17.6135 6.5 19.2696 6.60509 20.7202 6.81597C21.5292 6.93357 22.2714 7.3306 22.8182 7.93819L26.1225 11.6096C26.5697 12.1064 26.6341 12.8392 26.2805 13.4065C25.1794 15.1728 24.043 16.805 22.8712 18.303C21.6591 19.8524 19.6492 22.1103 16.8375 25.0821C16.2682 25.6839 15.3188 25.7102 14.717 25.1408L14.7169 25.1408C14.7032 25.1275 14.6963 25.1209 14.6895 25.1141C14.6827 25.1074 14.676 25.1005 14.6627 25.0867C11.8253 22.1132 9.81547 19.8531 8.62864 18.2997C7.48591 16.804 6.35442 15.1747 5.23404 13.4118C4.8729 12.8436 4.93465 12.1043 5.38507 11.6038L8.68415 7.93818C9.23099 7.33059 9.97324 6.93356 10.7822 6.81597ZM10.9259 7.8056C10.3481 7.88959 9.81794 8.17318 9.42734 8.60718L6.44565 11.9202L10.0276 11.5241L14.2704 7.52415C13.0477 7.56533 11.9328 7.65923 10.9259 7.8056ZM6.13229 12.9609L9.93731 12.5401L14.6048 23.5735C12.2007 21.0278 10.4724 19.0659 9.42316 17.6926C8.31681 16.2445 7.21981 14.6673 6.13229 12.9609ZM15.7512 23.7168L20.4968 12.5H11.0061L15.7512 23.7168ZM21.5671 12.5367L16.9082 23.5485C19.2853 21.0126 21.0113 19.0574 22.0834 17.6869C23.2143 16.2413 24.313 14.6662 25.3792 12.9616L21.5671 12.5367ZM21.4707 11.5197L17.2322 7.52416C18.4548 7.56535 19.5695 7.65925 20.5763 7.8056C21.1541 7.8896 21.6842 8.17319 22.0748 8.60718L25.0558 11.9194L21.4707 11.5197ZM15.7513 7.50237L19.992 11.5H11.5109L15.7513 7.50237Z" fill="white"/>
</svg>
