<svg width="32" height="32" viewBox="0 0 32 32" fill="none" xmlns="http://www.w3.org/2000/svg">
<path fill-rule="evenodd" clip-rule="evenodd" d="M6.98086 5.86079C10.3668 5.62033 13.3 5.5 15.7813 5.5C18.266 5.5 21.2114 5.62064 24.6187 5.86175C26.6141 6.00294 28.2116 7.57244 28.3881 9.5651C28.5296 11.1634 28.6002 12.9113 28.6002 14.8091C28.6002 16.7516 28.5262 18.61 28.3781 20.3843C28.2019 22.4949 26.4374 24.1182 24.3195 24.1182H7.28102C5.16309 24.1182 3.39863 22.4949 3.22241 20.3843C3.07427 18.61 3.00024 16.7516 3.00024 14.8091C3.00024 12.9108 3.07094 11.1626 3.21252 9.56397C3.38898 7.57175 4.98587 6.00247 6.98086 5.86079ZM7.06344 7.02165C5.63845 7.12285 4.49781 8.24377 4.37177 9.66678C4.23334 11.2297 4.16403 12.9439 4.16403 14.8092C4.16403 16.7201 4.23677 18.5462 4.38216 20.2876C4.50803 21.7952 5.76836 22.9547 7.28117 22.9547H24.3196C25.8324 22.9547 27.0928 21.7952 27.2186 20.2876C27.364 18.5462 27.4368 16.7201 27.4368 14.8092C27.4368 12.9444 27.3675 11.2305 27.2291 9.66788C27.1031 8.24455 25.962 7.12348 24.5367 7.02263C21.155 6.78334 18.2362 6.66378 15.7815 6.66378C13.3301 6.66378 10.4237 6.78301 7.06344 7.02165ZM13.124 11.7938C13.1763 11.4767 13.4758 11.2622 13.7928 11.3145C13.8538 11.3246 13.9127 11.3443 13.9675 11.3729L19.5582 14.2945C19.843 14.4433 19.9532 14.7948 19.8044 15.0796C19.7493 15.1849 19.6633 15.2709 19.558 15.3259L13.9606 18.2488C13.6757 18.3975 13.3243 18.2872 13.1755 18.0024C13.147 17.9478 13.1274 17.889 13.1173 17.8283C12.9671 16.9234 12.8917 15.9294 12.8917 14.8466C12.8917 13.7482 12.9693 12.7305 13.124 11.7938ZM20.0965 13.2638C20.9509 13.7103 21.2816 14.7648 20.8351 15.6192C20.67 15.9352 20.4121 16.193 20.0961 16.358L14.4986 19.2809C13.6441 19.7271 12.5897 19.3961 12.1435 18.5416C12.058 18.3779 11.999 18.2017 11.9688 18.0195C11.8077 17.0489 11.7275 15.9916 11.7275 14.8473C11.7275 13.6874 11.8099 12.6066 11.9753 11.6049C12.1324 10.6538 13.0307 10.01 13.9818 10.1671C14.1647 10.1973 14.3416 10.2564 14.5059 10.3422L20.0965 13.2638ZM8.81874 25.8636C8.81874 26.1849 9.07923 26.4454 9.40056 26.4454H22.1997C22.5211 26.4454 22.7816 26.1849 22.7816 25.8636C22.7816 25.5423 22.5211 25.2818 22.1997 25.2818H9.40056C9.07923 25.2818 8.81874 25.5423 8.81874 25.8636Z" fill="white"/>
</svg>
